<?xml version="1.0" standalone="no"?>
<!DOCTYPE svg PUBLIC "-//W3C//DTD SVG 20010904//EN"
 "http://www.w3.org/TR/2001/REC-SVG-20010904/DTD/svg10.dtd">
<svg version="1.0" xmlns="http://www.w3.org/2000/svg"
 width="900.000000pt" height="683.000000pt" viewBox="0 0 900.000000 683.000000"
 preserveAspectRatio="xMidYMid meet">

<g transform="translate(0.000000,683.000000) scale(0.100000,-0.100000)"
fill="#000000" stroke="none">
<path d="M7580 6823 c-726 -31 -1526 -172 -2220 -390 -1156 -364 -2084 -926
-2691 -1629 -122 -141 -239 -291 -233 -297 3 -3 190 -6 414 -7 l408 -1 114
112 c909 898 2297 1601 4003 2028 223 56 758 169 815 173 14 0 -6 4 -45 8 -67
7 -430 9 -565 3z"/>
<path d="M1790 4119 c-204 -28 -339 -196 -340 -421 0 -129 49 -229 150 -303
52 -38 109 -63 326 -145 199 -74 252 -113 275 -202 26 -97 -21 -201 -109 -240
-116 -52 -241 -31 -316 53 -50 56 -74 116 -83 207 l-6 62 -118 0 -119 0 0
-257 0 -258 112 2 113 2 5 67 c5 66 5 67 20 40 19 -36 94 -90 153 -110 70 -24
174 -30 268 -17 293 41 442 296 346 590 -17 53 -32 77 -77 121 -64 64 -140
104 -337 175 -175 63 -249 101 -287 148 -28 35 -31 46 -31 105 0 55 5 75 27
114 66 112 261 129 368 32 53 -48 81 -110 89 -197 l6 -72 118 -3 117 -3 0 246
0 245 -115 0 -115 0 0 -60 0 -60 -36 40 c-51 56 -123 89 -225 100 -94 11 -89
11 -179 -1z"/>
<path d="M4594 4119 c-140 -18 -274 -79 -366 -167 -159 -152 -227 -357 -215
-656 6 -168 34 -279 100 -395 70 -122 210 -234 357 -283 61 -21 81 -22 310
-20 135 1 254 4 265 6 11 3 111 5 223 5 l202 1 0 96 0 97 -134 -7 c-73 -4
-151 -11 -172 -16 -44 -10 -59 -4 -29 12 11 6 45 37 77 68 65 67 126 183 154
300 28 112 26 335 -5 450 -50 191 -152 338 -290 420 -87 52 -159 76 -268 89
-97 12 -120 12 -209 0z m248 -206 c102 -45 184 -157 222 -303 11 -38 20 -123
23 -206 8 -208 -25 -351 -111 -476 -71 -104 -162 -153 -286 -152 -183 0 -313
126 -365 354 -23 99 -23 336 -1 437 25 114 63 198 118 258 105 116 261 150
400 88z"/>
<path d="M6933 4091 c-55 -26 -83 -71 -83 -135 0 -89 62 -150 152 -150 84 0
143 62 143 149 0 115 -109 184 -212 136z m128 -16 c93 -48 90 -194 -5 -239
-47 -22 -87 -20 -127 7 -72 48 -86 134 -32 198 43 50 106 63 164 34z"/>
<path d="M6930 3960 c0 -73 2 -80 20 -80 16 0 20 7 20 31 0 27 3 30 28 27 21
-2 28 -9 30 -30 2 -20 9 -28 23 -28 22 0 23 8 9 44 -7 18 -6 34 2 52 11 23 10
29 -11 45 -16 13 -39 19 -72 19 l-49 0 0 -80z m98 28 c-3 -23 -28 -34 -53 -24
-8 3 -11 13 -8 25 4 15 13 21 35 21 25 0 29 -4 26 -22z"/>
<path d="M500 4010 l0 -90 90 0 90 0 0 -560 0 -560 -90 0 -91 0 3 -90 3 -91
320 0 320 0 3 91 3 90 -96 0 -95 0 2 558 3 557 93 3 92 3 0 89 0 90 -325 0
-325 0 0 -90z"/>
<path d="M2670 3850 l0 -250 120 0 120 0 0 155 0 156 118 -3 117 -3 3 -552 2
-552 -101 -3 -100 -3 -1 -87 c-1 -49 2 -88 5 -88 4 0 158 0 342 0 l335 0 0 90
0 90 -100 0 -100 0 0 555 0 555 115 0 115 0 0 -155 0 -155 120 0 120 0 0 250
0 250 -615 0 -615 0 0 -250z"/>
<path d="M5620 4096 c-3 -2 -4 -43 -2 -90 l3 -85 82 -3 82 -3 3 -557 2 -558
-85 0 -85 0 0 -92 0 -93 457 5 c503 6 504 6 603 70 60 38 101 88 138 167 23
51 27 70 26 153 -1 192 -86 316 -247 360 l-62 17 35 8 c179 39 278 213 236
414 -29 136 -91 213 -213 263 -57 23 -63 23 -513 26 -251 2 -458 1 -460 -2z
m817 -204 c105 -54 132 -231 52 -341 -48 -68 -72 -75 -256 -79 l-163 -4 0 227
0 228 163 -5 c141 -4 167 -7 204 -26z m10 -636 c162 -76 159 -347 -5 -428 -42
-20 -64 -23 -209 -26 l-163 -4 0 241 0 241 163 0 c150 0 166 -2 214 -24z"/>
<path d="M1475 2258 c-9 -25 -65 -346 -85 -480 -33 -228 -64 -579 -75 -838 -3
-74 -8 -181 -10 -238 -6 -115 9 -140 19 -33 14 152 89 505 161 756 61 212 206
626 269 768 14 32 26 62 26 67 0 16 -300 13 -305 -2z"/>
<path d="M2290 2227 c-31 -16 -52 -38 -74 -77 -30 -53 -31 -60 -31 -170 0 -99
3 -121 22 -156 81 -151 272 -143 327 14 l15 42 -36 15 c-48 20 -50 20 -57 -15
-7 -39 -51 -80 -85 -80 -64 0 -103 61 -105 165 -2 136 30 195 106 195 41 0 88
-34 88 -65 0 -18 3 -18 52 -4 l38 10 -16 37 c-43 104 -146 141 -244 89z"/>
<path d="M3867 2230 c-20 -16 -27 -33 -32 -75 -6 -45 -11 -55 -26 -55 -15 0
-19 -7 -19 -40 0 -33 3 -40 20 -40 19 0 20 -7 20 -150 l0 -150 40 0 40 0 0
150 0 150 30 0 c28 0 30 2 30 40 0 38 -2 40 -30 40 -24 0 -30 4 -30 23 0 34
16 51 47 52 23 1 29 7 31 30 2 15 -2 32 -10 36 -24 16 -85 10 -111 -11z"/>
<path d="M3600 2195 l0 -45 40 0 40 0 0 45 0 45 -40 0 -40 0 0 -45z"/>
<path d="M4072 2198 c3 -42 4 -43 41 -46 l37 -3 0 45 0 46 -41 0 -40 0 3 -42z"/>
<path d="M4880 2150 c0 -49 -2 -90 -5 -90 -3 0 -15 9 -26 19 -32 30 -66 34
-107 14 -48 -24 -70 -57 -82 -123 -12 -65 -5 -131 21 -182 38 -76 115 -95 169
-43 l30 29 0 -27 c0 -25 3 -27 40 -27 l40 0 0 260 0 260 -40 0 -40 0 0 -90z
m-32 -141 c24 -24 35 -84 26 -138 -12 -77 -73 -106 -113 -55 -17 21 -21 41
-21 94 0 53 4 73 21 94 25 31 61 34 87 5z"/>
<path d="M5280 2200 l0 -40 65 0 65 0 0 -220 0 -220 40 0 40 0 2 218 3 217 63
3 62 3 0 39 0 40 -170 0 -170 0 0 -40z"/>
<path d="M3398 2204 c-33 -23 -38 -33 -38 -66 0 -31 -3 -38 -20 -38 -17 0 -20
-7 -20 -40 0 -33 3 -40 20 -40 19 0 20 -7 20 -119 0 -137 7 -163 48 -180 29
-12 100 -3 95 12 -2 4 -3 20 -3 36 0 26 -3 30 -27 28 l-28 -2 -3 113 -3 112
31 0 c28 0 30 2 30 40 0 38 -2 40 -30 40 -29 0 -29 0 -32 65 l-3 65 -37 -26z"/>
<path d="M6478 2204 c-33 -23 -38 -33 -38 -66 0 -31 -3 -38 -20 -38 -17 0 -20
-7 -20 -40 0 -33 3 -40 20 -40 19 0 20 -7 20 -119 0 -137 7 -163 48 -180 29
-12 100 -3 95 12 -2 4 -3 20 -3 36 0 26 -3 30 -27 28 l-28 -2 -3 113 -3 112
31 0 c28 0 30 2 30 40 0 38 -2 40 -30 40 -29 0 -29 0 -32 65 l-3 65 -37 -26z"/>
<path d="M2750 2097 c-56 -19 -100 -102 -100 -188 0 -59 28 -135 59 -162 61
-51 156 -41 198 22 13 19 23 40 23 46 0 17 -73 31 -78 16 -7 -22 -34 -41 -57
-41 -25 0 -47 25 -60 68 -6 22 -6 22 101 22 l107 0 -6 60 c-11 122 -92 190
-187 157z m90 -87 c11 -11 20 -31 20 -45 0 -24 -3 -25 -60 -25 -58 0 -60 1
-60 27 0 57 60 83 100 43z"/>
<path d="M3160 2081 l-30 -29 0 24 c0 21 -4 24 -40 24 l-40 0 0 -190 0 -190
39 0 38 0 6 123 c3 67 8 130 12 140 11 26 41 40 64 28 16 -9 20 -5 29 32 12
45 9 51 -26 62 -17 5 -29 -1 -52 -24z"/>
<path d="M4370 2097 c-115 -40 -134 -283 -28 -361 36 -26 115 -27 152 -2 25
16 65 81 55 90 -2 2 -20 7 -40 11 -31 6 -36 4 -47 -19 -9 -20 -19 -26 -42 -26
-30 0 -51 21 -65 68 -6 22 -6 22 101 22 l107 0 -6 60 c-11 122 -92 190 -187
157z m90 -87 c11 -11 20 -31 20 -45 0 -24 -3 -25 -60 -25 -58 0 -60 1 -60 27
0 57 60 83 100 43z"/>
<path d="M5760 2097 c-56 -19 -100 -102 -100 -188 0 -59 28 -135 59 -162 61
-51 156 -41 198 22 13 19 23 40 23 46 0 17 -73 31 -78 16 -7 -22 -34 -41 -57
-41 -25 0 -47 25 -60 68 -6 22 -6 22 101 22 l107 0 -6 60 c-11 122 -92 190
-187 157z m90 -87 c11 -11 20 -31 20 -45 0 -24 -3 -25 -60 -25 -58 0 -60 1
-60 27 0 57 60 83 100 43z"/>
<path d="M6126 2100 c-63 -20 -96 -83 -76 -144 14 -45 26 -53 107 -81 82 -27
99 -48 64 -76 -36 -29 -88 -12 -104 34 -2 6 -20 7 -45 2 l-42 -7 20 -39 c11
-21 35 -46 53 -56 37 -19 122 -22 156 -4 32 18 61 70 61 113 0 55 -34 88 -121
118 -78 27 -97 49 -59 70 28 15 81 3 87 -21 4 -14 11 -17 37 -12 45 8 50 17
30 51 -27 47 -106 72 -168 52z"/>
<path d="M6760 2097 c-115 -40 -134 -283 -28 -361 36 -26 115 -27 152 -2 25
16 65 81 55 90 -2 2 -20 7 -40 11 -31 6 -36 4 -47 -19 -9 -20 -19 -26 -42 -26
-30 0 -51 21 -65 68 -6 22 -6 22 101 22 l107 0 -6 60 c-11 122 -92 190 -187
157z m90 -87 c11 -11 20 -31 20 -45 0 -24 -3 -25 -60 -25 -58 0 -60 1 -60 27
0 57 60 83 100 43z"/>
<path d="M7170 2081 l-30 -29 0 24 c0 21 -4 24 -40 24 l-40 0 0 -190 0 -190
39 0 38 0 6 123 c3 67 8 130 12 140 11 26 41 40 64 28 16 -9 20 -5 29 32 12
45 9 51 -26 62 -17 5 -29 -1 -52 -24z"/>
<path d="M3600 1910 l0 -190 40 0 40 0 0 190 0 190 -40 0 -40 0 0 -190z"/>
<path d="M4070 1910 l0 -190 40 0 40 0 0 190 0 190 -40 0 -40 0 0 -190z"/>
<path d="M2200 1240 l0 -260 40 0 40 0 0 110 0 110 90 0 90 0 0 45 0 45 -90 0
-90 0 0 65 0 65 105 0 105 0 0 40 0 40 -145 0 -145 0 0 -260z"/>
<path d="M4030 1410 c0 -49 -2 -90 -5 -90 -3 0 -15 9 -26 19 -32 30 -66 34
-107 14 -48 -24 -70 -57 -82 -123 -12 -65 -5 -131 21 -182 38 -76 115 -95 169
-43 l30 29 0 -27 c0 -25 3 -27 40 -27 l40 0 0 260 0 260 -40 0 -40 0 0 -90z
m-32 -141 c24 -24 35 -84 26 -138 -12 -77 -73 -106 -113 -55 -17 21 -21 41
-21 94 0 53 4 73 21 94 25 31 61 34 87 5z"/>
<path d="M4862 1458 c3 -42 4 -43 41 -46 l37 -3 0 45 0 46 -41 0 -40 0 3 -42z"/>
<path d="M6140 1240 l0 -260 150 0 150 0 0 45 0 45 -110 0 -110 0 0 215 0 215
-40 0 -40 0 0 -260z"/>
<path d="M7660 1240 l0 -260 40 0 40 0 0 260 0 260 -40 0 -40 0 0 -260z"/>
<path d="M4658 1464 c-33 -23 -38 -33 -38 -66 0 -31 -3 -38 -20 -38 -17 0 -20
-7 -20 -40 0 -33 3 -40 20 -40 19 0 20 -7 20 -119 0 -137 7 -163 48 -180 29
-12 100 -3 95 12 -2 4 -3 20 -3 36 0 26 -3 30 -27 28 l-28 -2 -3 113 -3 112
31 0 c28 0 30 2 30 40 0 38 -2 40 -30 40 -29 0 -29 0 -32 65 l-3 65 -37 -26z"/>
<path d="M2670 1348 c-75 -39 -109 -125 -90 -229 13 -67 48 -113 103 -134 109
-42 207 50 207 193 0 141 -110 226 -220 170z m107 -82 c26 -22 28 -30 28 -96
0 -66 -2 -74 -28 -96 -36 -31 -52 -30 -88 5 -26 26 -29 36 -29 91 0 55 3 65
29 91 36 35 52 36 88 5z"/>
<path d="M3560 1359 c-14 -6 -35 -20 -47 -31 l-23 -21 0 26 c0 25 -3 27 -40
27 l-40 0 0 -190 0 -190 40 0 40 0 0 103 c1 158 19 207 76 207 41 0 48 -24 52
-171 l4 -139 40 0 40 0 -4 153 c-4 172 -15 207 -69 226 -37 13 -36 13 -69 0z"/>
<path d="M4302 1359 c-34 -10 -74 -62 -70 -89 2 -8 17 -17 35 -21 26 -5 33 -2
42 17 19 42 91 30 91 -16 0 -25 -5 -29 -62 -45 -82 -23 -106 -40 -118 -84 -29
-108 73 -187 159 -123 37 27 41 27 41 2 0 -17 7 -20 41 -20 35 0 40 2 34 18
-4 9 -10 73 -12 142 -5 163 -9 185 -37 203 -30 20 -103 28 -144 16z m98 -246
c-7 -47 -29 -73 -60 -73 -24 0 -40 21 -40 51 0 30 11 41 55 57 50 18 52 16 45
-35z"/>
<path d="M5160 1348 c-75 -39 -109 -125 -90 -229 13 -67 48 -113 103 -134 109
-42 207 50 207 193 0 141 -110 226 -220 170z m107 -82 c26 -22 28 -30 28 -96
0 -66 -2 -74 -28 -96 -36 -31 -52 -30 -88 5 -26 26 -29 36 -29 91 0 55 3 65
29 91 36 35 52 36 88 5z"/>
<path d="M5640 1359 c-14 -6 -35 -20 -47 -31 l-23 -21 0 26 c0 25 -3 27 -40
27 l-40 0 0 -190 0 -190 40 0 40 0 0 103 c1 158 19 207 76 207 41 0 48 -24 52
-171 l4 -139 40 0 40 0 -4 153 c-4 172 -15 207 -69 226 -37 13 -36 13 -69 0z"/>
<path d="M6630 1357 c-115 -40 -134 -283 -28 -361 36 -26 115 -27 152 -2 25
16 65 81 55 90 -2 2 -20 7 -40 11 -31 6 -36 4 -47 -19 -9 -20 -19 -26 -42 -26
-30 0 -51 21 -65 68 -6 22 -6 22 101 22 l107 0 -6 60 c-11 122 -92 190 -187
157z m90 -87 c11 -11 20 -31 20 -45 0 -24 -3 -25 -60 -25 -58 0 -60 1 -60 27
0 57 60 83 100 43z"/>
<path d="M7360 1357 c-56 -19 -100 -102 -100 -188 0 -59 28 -135 59 -162 61
-51 156 -41 198 22 13 19 23 40 23 46 0 17 -73 31 -78 16 -7 -22 -34 -41 -57
-41 -25 0 -47 25 -60 68 -6 22 -6 22 101 22 l107 0 -6 60 c-11 122 -92 190
-187 157z m90 -87 c11 -11 20 -31 20 -45 0 -24 -3 -25 -60 -25 -58 0 -60 1
-60 27 0 57 60 83 100 43z"/>
<path d="M3002 1208 c4 -176 15 -209 72 -228 41 -13 94 5 120 41 l16 23 0 -32
c0 -31 2 -32 40 -32 l40 0 0 190 0 190 -40 0 -40 0 0 -102 c-1 -159 -19 -208
-76 -208 -41 0 -48 24 -52 171 l-4 139 -40 0 -40 0 4 -152z"/>
<path d="M4860 1170 l0 -190 40 0 40 0 0 190 0 190 -40 0 -40 0 0 -190z"/>
<path d="M6934 1173 l63 -188 39 -3 39 -3 54 178 c29 98 56 184 59 191 3 10
-6 12 -39 10 l-43 -3 -35 -123 c-19 -71 -37 -118 -41 -111 -4 6 -23 63 -41
125 l-33 114 -42 0 -42 0 62 -187z"/>
<path d="M2315 758 c-2 -7 -40 -124 -83 -260 l-80 -248 47 0 47 0 15 58 15 57
89 0 88 0 20 -57 19 -58 45 0 c32 0 44 4 40 13 -2 7 -40 124 -83 260 l-78 247
-48 0 c-30 0 -50 -5 -53 -12z m84 -206 l29 -92 -59 0 c-33 0 -59 2 -59 6 0 12
54 184 57 180 2 -1 16 -44 32 -94z"/>
<path d="M3072 728 c3 -42 4 -43 41 -46 l37 -3 0 45 0 46 -41 0 -40 0 3 -42z"/>
<path d="M3280 510 l0 -260 40 0 40 0 0 260 0 260 -40 0 -40 0 0 -260z"/>
<path d="M4080 730 l0 -40 65 0 65 0 0 -220 0 -220 40 0 40 0 0 220 0 220 65
0 65 0 0 40 0 40 -170 0 -170 0 0 -40z"/>
<path d="M5278 734 c-33 -23 -38 -33 -38 -66 0 -31 -3 -38 -20 -38 -17 0 -20
-7 -20 -40 0 -33 3 -40 20 -40 19 0 20 -7 20 -119 0 -137 7 -163 48 -180 29
-12 100 -3 95 12 -2 4 -3 20 -3 36 0 26 -3 30 -27 28 l-28 -2 -3 113 -3 112
31 0 c28 0 30 2 30 40 0 38 -2 40 -30 40 -29 0 -29 0 -32 65 l-3 65 -37 -26z"/>
<path d="M2731 622 c-47 -24 -69 -57 -82 -125 -15 -87 2 -161 51 -209 48 -49
85 -50 135 -7 l35 31 0 -34 c0 -52 -18 -95 -43 -102 -37 -10 -47 -7 -70 17
-13 15 -39 27 -65 31 l-44 7 7 -33 c4 -18 13 -40 19 -50 27 -45 133 -62 201
-34 62 26 69 54 73 299 l4 217 -41 0 c-38 0 -41 -2 -41 -27 -1 -25 -2 -26 -11
-10 -10 17 -66 47 -86 47 -4 0 -23 -8 -42 -18z m99 -72 c11 -6 24 -29 31 -52
30 -114 -50 -218 -110 -142 -16 21 -21 41 -21 89 0 93 42 136 100 105z"/>
<path d="M3580 627 c-56 -19 -100 -102 -100 -188 0 -59 28 -135 59 -162 61
-51 156 -41 198 22 13 19 23 40 23 46 0 17 -73 31 -78 16 -7 -22 -34 -41 -57
-41 -25 0 -47 25 -60 68 -6 22 -6 22 101 22 l107 0 -6 60 c-11 122 -92 190
-187 157z m90 -87 c11 -11 20 -31 20 -45 0 -24 -3 -25 -60 -25 -58 0 -60 1
-60 27 0 57 60 83 100 43z"/>
<path d="M4550 627 c-56 -19 -100 -102 -100 -188 0 -59 28 -135 59 -162 61
-51 156 -41 198 22 13 19 23 40 23 46 0 17 -73 31 -78 16 -7 -22 -34 -41 -57
-41 -25 0 -47 25 -60 68 -6 22 -6 22 101 22 l107 0 -6 60 c-11 122 -92 190
-187 157z m90 -87 c11 -11 20 -31 20 -45 0 -24 -3 -25 -60 -25 -58 0 -60 1
-60 27 0 57 60 83 100 43z"/>
<path d="M4916 630 c-63 -20 -96 -83 -76 -144 14 -45 26 -53 107 -81 82 -27
99 -48 64 -76 -36 -29 -88 -12 -104 34 -2 6 -20 7 -45 2 l-42 -7 20 -39 c11
-21 35 -46 53 -56 37 -19 122 -22 156 -4 32 18 61 70 61 113 0 55 -34 88 -121
118 -78 27 -97 49 -59 70 28 15 81 3 87 -21 4 -14 11 -17 37 -12 45 8 50 17
30 51 -27 47 -106 72 -168 52z"/>
<path d="M5560 627 c-115 -40 -134 -283 -28 -361 36 -26 115 -27 152 -2 25 16
65 81 55 90 -2 2 -20 7 -40 11 -31 6 -36 4 -47 -19 -9 -20 -19 -26 -42 -26
-30 0 -51 21 -65 68 -6 22 -6 22 101 22 l107 0 -6 60 c-11 122 -92 190 -187
157z m90 -87 c11 -11 20 -31 20 -45 0 -24 -3 -25 -60 -25 -58 0 -60 1 -60 27
0 57 60 83 100 43z"/>
<path d="M5970 611 l-30 -29 0 24 c0 21 -4 24 -40 24 l-40 0 0 -190 0 -190 39
0 38 0 6 123 c3 67 8 130 12 140 11 26 41 40 64 28 16 -9 20 -5 29 32 12 45 9
51 -26 62 -17 5 -29 -1 -52 -24z"/>
<path d="M3070 440 l0 -190 40 0 40 0 0 190 0 190 -40 0 -40 0 0 -190z"/>
</g>
</svg>
